<?xml version="1.0" encoding="UTF-8"?>
<!--
  Soul Miner's Eden — Wheelbarrow Secondary Mark (Reversed)
  For dark backgrounds: white on transparent
-->
<svg xmlns="http://www.w3.org/2000/svg" viewBox="0 0 621.91 485.85">
  <defs>
    <style>
      .mark-structure, .mark-botanical { fill: #fff; }
    </style>
  </defs>
  <path class="mark-structure" d="M547.96 248.46c.54 6.51-5.8 7.68-9.38 11.32l-75.91 77.29c19.6-5.57 38.31-5.57 56.64 1.42 26.11 9.95 44.72 33.39 48.64 59.54 4.46 29.72-7.26 56.84-31.54 74.93 29.52 3.19 57.33 5.74 85.5 11.89-9.81 1.03-18.23 1-28.28.99l-535.2-.25c13.86-5.61 28.33-6.96 42.98-9.11 32.92-4.85 64.93-7.73 98.94-9.39-5.48-5.79-6.03-11.96-6.52-19.14l-5.28-76.56-117.98-92.87-10.33-1.82c-2.61 1.41-5.44 2.39-8.46 1.6L9.76 267.24c-5.82-1.54-9.82-4.63-9.76-11 .04-4.56 3.76-11.16 9.97-10.16l48.17 7.79c2.91.47 4.71 2.29 6.15 4.53 5.49 1.21 13.05-.46 18.01 3.29l50.62 38.35 39.49 30.2-13.45-25.62-17.57-38.18 78.47-2.24 45.45-.77 42.72-1.14-88.1-.48-89.45.09c-3.81 0-6.92-4.82-6.62-7.3.39-3.26 3.14-6.35 7.44-6.35l227.41.26 189.26-.04ZM472.91 421.24c-7.17-2.31-15.58-1.5-23.11-2.06 4.44 17.21 20.21 28.28 37.56 27.08 16.63-1.16 31.31-13.73 33.34-31.36 1.82-15.78-7.33-30.98-22.11-36.55-10.87-4.09-22.79-3.31-32.62 2.43 3.41 6.45 7.3 12.54 11.8 17.33 5.05-1.15 9.87-2.07 14.68.35 3.36 1.69 6.88 5.75 7.73 10.42 1.39 7.57-3.6 12.54-9.03 15.51-6.96 3.81-11.66-1.04-18.24-3.16ZM270.09 428.64l26.23-31.69-50.95-10.54-34.77-7.27 5.06 70.93c.36 5.1 3.71 9.39 9.27 9.35l20.02-.12 25.14-30.66ZM288.69 460.34c4.76 0 10.02-2.15 13.02-5.64l41.87-48.61-23.85-4.5-43.85 51.33c-2.13 2.49-3.87 5.03-5.69 7.44l18.5-.03ZM436.58 466.7l-13.81-15.63c-7.05-10.94-11.21-22.65-11.75-35.97l-44.75-4.67-47.27 53.73 63.97.23 53.62 2.32Z"/>
  <path class="mark-botanical" d="M231.5 238.47c9.51-1.54 18.68-2.79 28.39-3.49 12.82-.93 33.95-7.59 45.4-13.75 13.12-7.05 26.43-10.94 41.63-12.33-3.65-7.11-8.7-12.42-14.95-16.81-19.4 6.49-39.82 4.88-57.03-6.28-18.34-11.89-28.24-31.93-37.25-51.93 20.27-7.38 41.79-8.16 61.84-.26 21.46 8.47 35.96 27.26 40.01 49.91l8.49 8.55 4.2-50.46a111 111 0 0 0-10.3-12.35c-41.75 2.69-59.82-25.68-66.52-63.55 15.02-1.31 29.63-.02 43.02 6.44 17.72 8.56 29.84 25 30.53 44.73.15 4.3.77 7.87 4.81 10.11l2.48-39.08c.25-3.97-.12-8.79-.22-13.04-1.39-1.07-4.12-2.51-5.91-3.06-32.14-9.89-40.64-41.68-33.31-71.84 14.86 2.68 28.12 9.16 37.93 19.73 12.74 13.73 15.17 31.08 9.45 48.38-1.87 5.65-.52 13.33.34 19.31 4.15-11.75 9.2-21.11 19.02-27.82 12.39-8.47 26.65-12.78 42.19-12.02.74 31.78-18.93 62.74-53.73 60.5l-6.94 7.51-1.21 44.3 6.66-5.51c3.77-20.3 19.5-35.16 39.55-40.35 17.56-4.54 35.74-2.19 52.77 5.42-14.54 36.14-48.4 61.73-87.78 43.99l-10.79 9.63 1.54 35.01c14.81.9 27.17 5.73 40.11 11.74 41.09 19.09 27.99-.59 59.78 13.56l39.52 8.47-291.36.07 17.62-3.45Z"/>
</svg>
