<?xml version="1.0" encoding="UTF-8"?><svg id="Layer_1" xmlns="http://www.w3.org/2000/svg" viewBox="0 0 335.93 128.95"><path d="M16.65,101.73c-2.8,0-4.64-1.6-4.72-3.74h1.48c.12,1.16.98,2.56,3.24,2.56,1.94,0,3.08-1.14,3.08-2.58,0-4.12-7.68-1.52-7.68-6.78,0-2.16,1.78-3.74,4.48-3.74s4.26,1.48,4.5,3.4h-1.52c-.16-.98-1.1-2.18-3.04-2.2-1.64-.02-3,.88-3,2.5,0,4.04,7.68,1.56,7.68,6.76,0,1.9-1.54,3.82-4.5,3.82Z" fill="#7e7f73"/><path d="M37.13,101.73c-3.92,0-6.92-2.94-6.92-7.14s3-7.14,6.92-7.14,6.92,2.96,6.92,7.14-2.98,7.14-6.92,7.14ZM37.13,100.51c3.1,0,5.48-2.26,5.48-5.92s-2.38-5.9-5.48-5.9-5.48,2.24-5.48,5.9,2.38,5.92,5.48,5.92Z" fill="#7e7f73"/><path d="M53.95,87.61h1.4v8.8c0,2.9,1.52,4.08,3.7,4.08s3.66-1.18,3.66-4.08v-8.8h1.4v8.78c0,3.7-2.24,5.34-5.08,5.34s-5.08-1.64-5.08-5.34v-8.78Z" fill="#7e7f73"/><path d="M77.43,87.61v12.84h5.02v1.14h-6.42v-13.98h1.4Z" fill="#7e7f73"/><path d="M107.53,87.79h1.48l5.34,11.96,5.34-11.96h1.5v13.8h-1.4v-11.02l-4.92,11.02h-1.02l-4.92-10.98v10.98h-1.4v-13.8Z" fill="#7e7f73"/><path d="M133.17,87.61h1.4v13.98h-1.4v-13.98Z" fill="#7e7f73"/><path d="M157.09,87.61v13.98h-1.4l-7.74-11.76v11.76h-1.4v-13.98h1.4l7.74,11.74v-11.74h1.4Z" fill="#7e7f73"/><path d="M176.37,88.75h-5.9v5.22h5.3v1.16h-5.3v5.3h5.9v1.16h-7.3v-14h7.3v1.16Z" fill="#7e7f73"/><path d="M192.13,87.61c3.24,0,4.76,1.76,4.76,4.06,0,1.92-1.08,3.54-3.44,3.98l3.6,5.94h-1.68l-3.46-5.84h-2.58v5.84h-1.4v-13.98h4.2ZM192.13,88.79h-2.8v5.82h2.82c2.28,0,3.3-1.24,3.3-2.94s-.96-2.88-3.32-2.88Z" fill="#7e7f73"/><path d="M207.49,91.93l1.16-4.32h1.62l-1.76,4.32h-1.02Z" fill="#7e7f73"/><path d="M225.05,101.73c-2.8,0-4.64-1.6-4.72-3.74h1.48c.12,1.16.98,2.56,3.24,2.56,1.94,0,3.08-1.14,3.08-2.58,0-4.12-7.68-1.52-7.68-6.78,0-2.16,1.78-3.74,4.48-3.74s4.26,1.48,4.5,3.4h-1.52c-.16-.98-1.1-2.18-3.04-2.2-1.64-.02-3,.88-3,2.5,0,4.04,7.68,1.56,7.68,6.76,0,1.9-1.54,3.82-4.5,3.82Z" fill="#7e7f73"/><path d="M262.64,88.75h-5.9v5.22h5.3v1.16h-5.3v5.3h5.9v1.16h-7.3v-14h7.3v1.16Z" fill="#7e7f73"/><path d="M285.74,94.63c0,4.34-2.74,6.96-7.4,6.96h-4.14v-13.98h4.14c4.66,0,7.4,2.64,7.4,7.02ZM278.34,100.43c3.96,0,5.98-2.2,5.98-5.8s-2.02-5.86-5.98-5.86h-2.74v11.66h2.74Z" fill="#7e7f73"/><path d="M304.02,88.75h-5.9v5.22h5.3v1.16h-5.3v5.3h5.9v1.16h-7.3v-14h7.3v1.16Z" fill="#7e7f73"/><path d="M326.12,87.61v13.98h-1.4l-7.74-11.76v11.76h-1.4v-13.98h1.4l7.74,11.74v-11.74h1.4Z" fill="#7e7f73"/><rect y="59.91" width="133.25" height=".23" fill="#bab9af"/><rect x="211.68" y="59.91" width="124.25" height=".23" fill="#bab9af"/><rect x="37.53" y="128.72" width="260.86" height=".23" fill="#bab9af"/><path d="M150.45,49.22c-1.31-.05-1.46,0-1.61.17-.15.18-.09.49.18.93.31.47,1.52,2.78,2.61,3.22,1.7.69,30.94,3.13,30.94,3.13-.08-.08-9.36-1.96-10.5-2.05-1.31-.11-11.74-.95-18.35-1.6-.4-.04-1.59-.22-2.13-.71-.49-.45-1.24-2.03-1.2-2.09.04-.06,4.85.46,4.91.47" fill="#7e7f73"/><path d="M184.37,39.54c-3.28,3.69-7.37,8.27-8.63,9.52-.12.12-.28.14-.39.14l-22.14-1.37c-.25-.59-2.17-5.04-3.43-8.1.55.41,1.17.92,1.62,1.44.67.75,1.05,1.42,1.49,2.2.37.66.78,1.42,1.46,2.29.16.23.43.36.67.34l17.15-.67c.27-.02.51-.12.73-.32,4.53-4.39,8.49-7.39,11.75-8.95,1.15-.55,2.43-.92,3.84-1.12-.92,1.01-2.45,2.72-4.12,4.6Z" fill="#e2e2e2"/><path d="M173.9,27.13c-1.78,1-3.27,1.55-5.04,1.18-.89-.19-1.92-.42-3.18-.51-2.57-.19-4.08-.15-5.22,1.91-.37.66-.87.79-1.64.4-.98-.45-1.87-.63-2.64-.63-1.17,0-2.1.38-2.68.73.37-.38.87-.79,1.15-1,1.22-.89,2.83-.89,3.81-.63.09.02.26.09.47.16,1.07.38,1.17.4,1.26.28.68-1.01,2.47-2.31,3.43-2.82,1.21-.61,2.78-.94,4.44-.94h.24c3.11.05,5.07,1.45,5.58,1.85Z" fill="#e6d4d3"/><path d="M191.53,60.92c-1.03,1.35-2.97,2.1-4.95,1.94-2.15-.19-3.81-1.57-4.37-3.64l.72.1c.65,1.24,2.1,2.13,3.66,2.22.98.04,2.83-.19,4.2-2.41,1.17-1.91.87-4.09.66-5.07.37.32.86.91,1.15,1.75.42,1.15.56,2.97-1.07,5.11Z" fill="#e2e2e2"/><path d="M173.57,16.99c.63-.75,1.92-2.17,2.68-2.43,1.38-.51,2.9-1.14,4.67-1.94.61-.28,1.17-.61,1.59-.87-.51,1.05-1.35,2.59-1.75,3.11-.52.63-1.05,1.07-1.68,1.56-.58.44-1.73.84-2.52.87-.68.05-2.19-.07-2.99-.3Z" fill="#bab9af"/><path d="M166.76,20.49c-.19-.61-.45-1.24-.8-1.89-.49-1.07-1.15-2.05-1.66-2.8-.21-.31-.45-.61-.68-.91l-.26-.31-.12.03c-.84.14-1.49.19-1.84.16-.73-.02-1.84-.45-2.4-.82-.66-.45-1.77-1.87-2.29-2.54l-.1-.16c-.12-.16-.32-.45-.52-.8-.35-.56-.77-1.26-1.21-1.77-.28-.31-.72-.66-1.15-1,.63.23,1.4.54,2.2.96,1.87.96,2.97,1.07,3.78,1.15.66.07,1.12.12,1.7.58.94.73,1.75,1.57,2.4,2.5.12.16.24.33.38.59.16.26.28.49.37.66.21.37.38.75.59,1.17.65,1.31,1.45,3.18,1.63,5.18Z" fill="#bab9af"/><path d="M164.73,14.03c-.1-.23-.23-.45-.38-.68.17.26.3.51.38.68Z" fill="#bcbfb1"/><path d="M160.22,56.1s-3.62,4.83-5.09,6.4c-.23.24-.49.22-.67.18-.16-.04-.32-.14-.4-.32-.29-1.06-.04-8.65-.04-8.65l.63-.21c.79.73.82-.48.81.53s-.1,6.2-.1,6.2c0,0,.43-.47,1.74-1.74,2.91-2.82,3.12-2.39,3.12-2.39Z" fill="#7e7f73"/><path d="M195.06,59.71c-.65,1.9-2.03,3.54-3.78,4.51-1.77.95-3.86,1.27-5.77.76-4.29-1.13-5.31-4.25-5.55-5.07-.57-1.93-.39-3.41-.41-3.43-1.71-.37-8.49-1.34-10.26-1.59.06,0,1.27-.33,2.79-.29,2.44.08,12.93.98,12.92,1.13-.01.21,0,.92.17,1.52.13.48.53.88,1,1.08.61.3,1.42.19,1.96-.3.56-.47.84-1.32.6-2.1-.19-.8-.93-1.47-1.88-1.62.95-.19,2.03.39,2.53,1.36.52.97.37,2.29-.45,3.17-.76.88-2.14,1.21-3.28.75-.95-.37-1.69-1.33-1.86-2.34-1.1-.19-1.7-.29-2.78-.51-.17-.04-.39,5.69,4.82,6.89,3.32.76,6.75-1.26,7.75-4.43,1.16-3.11-.28-6.89-3.26-8.49-2.92-1.71-6.71-1.14-9.33,1.58.96-1.52,2.74-2.71,4.19-3.07,1.85-.47,3.89-.43,5.68.41,1.81.82,3.24,2.37,4.04,4.21.78,1.84.8,3.97.17,5.89Z" fill="#7e7f73"/><path d="M159.8,27.33s.02,0,.03-.02h.04l-.07.02Z" fill="#686969"/><path d="M184.54,10.9c-.37.65-.68,1.36-1.01,2.1-.63,1.43-1.5,3.04-2.73,4.11-3.17,2.76-7.8,1.59-8.88.79.04-.05-.12-.28-.09-.33.02-.05.32-.28.35-.33,1.12.84,5.13,1.71,8.2-.72,1.2-.95,1.85-2.41,2.45-3.83,1.13-2.72,2.15-3.73,2.15-3.73-.02-.14-2.25-1.72-4.3-1.98-3.28-.4-6.26.61-8.37,2.63-.69.66-2.04,2.33-2.03,4.45,0,1.12.16,1.93.16,1.93-.42-.54-.64-1.23-.65-1.81-.07-3.28,1.79-5.12,3.45-6.3,2.45-1.75,5.67-1.87,7.84-1.49,1.61.28,3.56,1.07,4.68,2.48.2.26-.5.78-1.22,2.03Z" fill="#7e7f73"/><path d="M166.62,14.24s-.89-.13-.43-.6c1.81-1.87,1.69-4.94.89-6.8s-2.31-3.45-4.11-4.36c-3.62-1.78-8.24-1.85-11.51.54-.84.56-1.61,1.22-2.29,1.98-.33.38-.65.77-.93,1.19-.05.09-.12.18-.16.26.21-.04.4-.04.61-.02.58.02,1.15.14,1.71.31,1.1.35,2.1.96,2.9,1.77,1.59,1.63,2.4,3.66,3.8,5.21,1.8,2.01,3.36,2.22,4.79,2.14.18-.01,1.54.15,1.54.15-.51.1-3.65,1.38-6.85-1.87-1.51-1.54-2.5-3.53-3.99-4.86-.75-.65-1.62-1.15-2.54-1.45-1.78-.58-2.65.02-3.17-.05-.26-.04-.37-.28-.42-.45-.07-.19-.02-.37,0-.38.02-.12.07-.26.1-.31.07-.14.12-.28.21-.4.12-.24.28-.49.44-.72.3-.47.65-.91,1-1.35.73-.84,1.57-1.59,2.5-2.22,1.85-1.28,4.11-1.92,6.33-1.94,2.24.02,4.44.49,6.39,1.63,1.94,1.1,3.55,2.84,4.31,4.89,1.41,3.77.18,6.64-1.14,7.73Z" fill="#7e7f73"/><path d="M159.84,27.31h.04l-.07.02s.02,0,.03-.02Z" fill="#686969"/><path d="M185.15,31.39l-.6.03c-.3-.96-1.08-2.84-3.55-3.46-1.62-.41-2.95-.25-4.47.33l-.4.16-.26-.38c-.77-1.12-2.08-2.2-3.45-2.71-1.36-.58-2.89-.8-4.39-.82-1.49-.03-2.99.21-4.36.8-1.36.54-2.62,1.66-3.53,2.75l-.24.31-.31-.1c-1.49-.52-2.44-.7-4.21-.15-1.89.56-3.31,2.64-3.31,3.23l-.58-.02c0-.7.94-2.71,3.22-3.8,1.47-.7,3.22-.7,4.81-.33.98-1.28,2.26-2.2,3.67-2.85,1.52-.72,3.22-1,4.86-.98s3.31.3,4.86.94c1.4.63,2.71,1.5,3.64,2.85.79-.21,1.56-.31,2.36-.35.93-.02,1.87.09,2.76.42,3.2,1.36,3.31,3.6,3.48,4.13Z" fill="#7e7f73"/><path d="M193.9,33.38c-.04.08-.58.78-.99,1.28-2.26,2.73-8.7,10.29-12.7,14.86-2.42,2.77-2.8,3.22-4.28,3.1-1.26-.11-18.47-1.71-18.47-1.71l-3.36-.35-1.68-.17s-.67-.07-.89-.1c-.46-.08-.89-.39-1.05-.82-.95-2.5-2.41-6.71-3.51-10.09,0,0,1.13.98,1.56,1.77.99,1.8,2.86,7.54,3.03,7.83.06.1.16.15.27.16,2.76.22,20.76,1.4,24.13,1.62.34.02.68-.11.91-.37l14.7-16.76c.25-.3.05-.64-.4-.63-.03,0-34.29-.43-45.81-.73-1.03-.03-1.43-.57-1.61-1.03-.56-1.37-2.3-4.99-2.3-4.99-.22-.56-.79-1.04-1.38-1.06-2.95-.06-4.39-.19-7.55-.22-.46,0-1.87-.98-1.87-.98h8.75c2.41,0,2.76.59,3.29,1.67.67,1.39,2.54,5.4,2.54,5.4.04.05.1.1.16.1,0,0,46.54.1,46.87.11,1.68.07,2.04,1.27,1.62,2.1Z" fill="#7e7f73"/><path d="M168.86,24.13v.04l-.44-.04v-.02l.44.02Z" fill="#686969"/><path d="M177.79,11.62c-.73.54-3.82,3.23-5.46,5.63-.07.12-.16.23-.23.35-.03.05-.07.1-.09.16-.04.05-.07.09-.1.14-.54.87-.91,1.81-1.35,2.75-.49,1.12-.78,2.33-.83,3.46,0,.02-.44.04-.44.05l-.42-.04-.44-.02h-.83c.28-1.56.32-3.39-.08-5.02-.35-1.64-.98-3.22-1.8-4.69-.8-1.49-1.85-2.87-3.08-4.06-1.17-1.33-4.15-2.94-4.18-2.96,0,0,.68-.11,1.49.29s1.67.92,3.16,2.16c1.37,1.13,2.57,2.48,3.55,4.01.94,1.52,1.71,3.18,2.1,4.97.17.61.28,1.24.35,1.87.09-.19.17-.37.26-.56.61-1.22,1.41-2.32,2.24-3.41,1.48-1.96,3.35-3.57,4.72-4.56.88-.64,1.45-.53,1.45-.53Z" fill="#7e7f73"/></svg>